<svg width="54" height="54" viewBox="0 0 54 54" fill="none" xmlns="http://www.w3.org/2000/svg">
<circle cx="26.7696" cy="26.7696" r="26.7696" fill="#4C68FF"/>
<path d="M30.6292 22.0614V20.8285C30.6292 20.7155 30.5403 20.6231 30.4316 20.6231H20.9505C20.8418 20.6231 20.753 20.7155 20.753 20.8285V22.0614C20.753 22.1744 20.8418 22.2668 20.9505 22.2668H30.4316C30.5403 22.2668 30.6292 22.1744 30.6292 22.0614ZM20.9505 24.3215C20.8418 24.3215 20.753 24.414 20.753 24.527V25.7598C20.753 25.8728 20.8418 25.9653 20.9505 25.9653H25.4935C25.6022 25.9653 25.6911 25.8728 25.6911 25.7598V24.527C25.6911 24.414 25.6022 24.3215 25.4935 24.3215H20.9505ZM30.2341 27.3008C27.2885 27.3008 24.901 29.7844 24.901 32.8485C24.901 35.9126 27.2885 38.3962 30.2341 38.3962C33.1797 38.3962 35.5673 35.9126 35.5673 32.8485C35.5673 29.7844 33.1797 27.3008 30.2341 27.3008ZM32.8883 35.6095C32.1797 36.3466 31.2365 36.7524 30.2341 36.7524C29.2317 36.7524 28.2885 36.3466 27.5799 35.6095C26.8713 34.8724 26.4812 33.8913 26.4812 32.8485C26.4812 31.8057 26.8713 30.8246 27.5799 30.0875C28.2885 29.3504 29.2317 28.9446 30.2341 28.9446C31.2365 28.9446 32.1797 29.3504 32.8883 30.0875C33.597 30.8246 33.9871 31.8057 33.9871 32.8485C33.9871 33.8913 33.597 34.8724 32.8883 35.6095ZM32.4316 30.8965H31.3378C31.2736 30.8965 31.2143 30.9274 31.1773 30.9813L29.6094 33.2363L29.0391 32.417C29.0208 32.3906 28.9967 32.369 28.9688 32.3543C28.9409 32.3395 28.9099 32.332 28.8786 32.3323H27.7898C27.6293 32.3323 27.5354 32.5223 27.6293 32.6584L29.4514 35.2807C29.5304 35.3938 29.6909 35.3938 29.7699 35.2807L32.5896 31.2227C32.6859 31.0866 32.5921 30.8965 32.4316 30.8965ZM24.5059 35.9305H18.7777V17.8492H32.6044V26.6844C32.6044 26.7974 32.6933 26.8899 32.8019 26.8899H34.1846C34.2932 26.8899 34.3821 26.7974 34.3821 26.6844V16.8219C34.3821 16.3673 34.029 16 33.592 16H17.7901C17.3531 16 17 16.3673 17 16.8219V36.9579C17 37.4125 17.3531 37.7798 17.7901 37.7798H24.5059C24.6146 37.7798 24.7034 37.6873 24.7034 37.5743V36.136C24.7034 36.023 24.6146 35.9305 24.5059 35.9305Z" fill="white"/>
</svg>
